<svg width="20" height="32" fill="none" xmlns="http://www.w3.org/2000/svg"><path d="M10 4.84a3.423 3.423 0 013.419 3.42 3.423 3.423 0 01-3.42 3.417A3.423 3.423 0 016.582 8.26 3.423 3.423 0 0110 4.84zm0 11.675c4.554 0 8.258-3.703 8.258-8.255C18.258 3.704 14.555 0 10 0S1.74 3.705 1.74 8.26c0 4.552 3.705 8.255 8.26 8.255zm3.34 6.737a15.46 15.46 0 004.796-1.986 2.419 2.419 0 10-2.577-4.096 10.488 10.488 0 01-11.119 0 2.418 2.418 0 00-3.647 2.585c.142.626.527 1.17 1.07 1.511a15.475 15.475 0 004.794 1.986L2.04 27.869a2.42 2.42 0 003.423 3.422l4.536-4.537 4.538 4.537a2.415 2.415 0 003.42 0 2.415 2.415 0 000-3.42l-4.616-4.62z" fill="#000"/></svg>