<svg width="32" height="20" fill="none" xmlns="http://www.w3.org/2000/svg"><path fill-rule="evenodd" clip-rule="evenodd" d="M31.266 1.535c.222-.742 0-1.287-1.059-1.287h-3.5c-.891 0-1.301.47-1.524.99 0 0-1.78 4.34-4.302 7.158-.816.816-1.187 1.075-1.632 1.075-.223 0-.545-.26-.545-1V1.534c0-.89-.258-1.287-1-1.287h-5.501c-.556 0-.89.413-.89.804 0 .844 1.26 1.039 1.39 3.413V9.62c0 1.13-.204 1.335-.65 1.335-1.186 0-4.073-4.359-5.785-9.346C5.932.639 5.596.248 4.701.248h-3.5C.2.248 0 .718 0 1.238c0 .927 1.187 5.526 5.526 11.609C8.42 17 12.495 19.252 16.204 19.252c2.225 0 2.5-.5 2.5-1.361v-3.14c0-1 .211-1.2.916-1.2.52 0 1.41.26 3.486 2.263 2.374 2.373 2.765 3.438 4.1 3.438h3.501c1 0 1.5-.5 1.212-1.487-.316-.984-1.449-2.41-2.953-4.102-.816-.965-2.04-2.003-2.41-2.522-.52-.668-.371-.965 0-1.558 0 0 4.265-6.008 4.71-8.048z" fill="#000"/></svg>